<svg xmlns="http://www.w3.org/2000/svg" width="105" height="5" viewBox="0 0"><g fill="#696158"><path clip-path="url(#SVGID_2_)" d="M104.603 4.788l.174-.432-1.568-.634c.424-1.818-.367-.939 1.388-1.628a8.284 8.284 0 00-.405-.335l-.219-.548-.249.21c-.407-.282-.556-.387-.784-1.091-1.363.36-2.728.723-4.09 1.084-.106-.202-.213-.403-.318-.605l.164-.04-.489-.578L98.104 0h-.508c-.107 1.847-.197 1.533-1.676 2.788l.121 1.508c.195-.135.393-.268.587-.4a1.258 1.258 0 01-.104.109c.44.03.761-.057 1.004-.209-.172.256-.305.558-.415.972h3.839"/><path clip-path="url(#SVGID_2_)" d="M98.318 2.743l.242-.166c-.14.168-.269.313-.387.445.052-.096.099-.19.145-.279m7.402-1.255v-.23l-.053-.007c.025.094.039.166.053.237M40.534 4.767h1.426c.083-.897-.031-1.834-.36-2.581l1.508-.119c.119.248.232.453.336.627l-.381.031.061.753.591-.355c.225.343.384.585.448.982a185.75 185.75 0 01-1.01-.249c.128.304.258.607.387.91h2.819c-.098-1.23-.197-2.463-.293-3.695l-1.213.097.323-.511-1.031-.253.163-.404h-5.063c.415.871.742 1.713.958 2.571.179.705.276 1.436.331 2.196M43.955.874l-.044.369-.109.009.153-.378m3.556 3.894h4.817a16.622 16.622 0 01-.079-2.292c-1.005.079-2.013.16-3.016.241a73.73 73.73 0 01-.061-.754c1.469-.29 3.139-.279 4.547-.701l.657.56.378-.03-.072-.919c.124-.067.245-.14.361-.22l.089 1.11.915-.073a5.17 5.17 0 01-.373.892 15.445 15.445 0 002.94-1.097l1.041-.083c-.559.852-1.168 1.149-1.733 2.034.418.482.658.693.849 1.02-.506-.428-.894-.515-1.875-.833-.26.245-.416.366-.522.454a7.955 7.955 0 00-.669-.432c-.511-.594-.376-.541-1.164-.973l-1.914-.227c.237.775.476 1.548.715 2.322h.841l-.304-.903c1.3.558.257.31 1.725-.105-.087.214-.175.428-.261.643l-.604.366h5.198l.114-.462c.215.137.497.234.889.332l.044.13h6.166c.301-.203.605-.348.939-.538.823-.188 1.648-.373 2.474-.559-.643-1.474-.767-.601-2.035-1.734l1.914.227C69.408.38 69.647.795 67.683.865A7.614 7.614 0 0168.991 0h-6.193c.389 1.359.521.891 1.58 2.268-.096.387-.191.774-.285 1.163a5.498 5.498 0 01-.56-.379l.046-.064-.437-.724-.443-.11c-.271-.416-.486-.92-.733-1.59-1.618.973-.007.874-.867 1.853-.174-.787-.388-1.202-.854-1.803.373-.21.735-.416 1.099-.613h-5.529c-.022.008-.043.017-.066.024A.126.126 0 0155.768 0h-4.502l-.056.178c.053.022.106.044.159.064-.38.312-.826.619-1.502.906.031-.383.066-.766.098-1.148H47.46c-.204.091-.43.178-.702.258.367 1.837.467 3.203.753 4.51M70.324.654c.567.589.91.599 1.597 1.013l-1.101.465.437.726c2.452.123 3.24-.379 5.202.285-.175.121-.278.317-.328.566-.453.129-.907.257-1.359.387l.663-1.193-1.508.12-.925.731-.838.065a6.401 6.401 0 00-.877-.585c.012.652.114 1.131.232 1.533h1.62a6.658 6.658 0 00-.78-.788c.401.163.805.325 1.207.489a4.607 4.607 0 00-.011-.122c.234.151.434.28.617.421h5.587a2.404 2.404 0 01-.003-.035l1.412-.112-.091-1.131c-.282.021-.565.045-.85.067.037-.066.091-.16.171-.291-.252.022-.503.041-.755.062.008.091.016.184.022.275l-.097.008.06.754c-.576-.523-.648-.658-1.225-.746-.073-.659-.378-1.126-1.195-1.508.188-.468.195-.847.307-1.649-.25.021-.503.039-.754.06a8.434 8.434 0 01-.251-.16c.033-.086.072-.189.117-.313-.502.041-1.005.081-1.508.12l.156.465a.165.165 0 00-.022.009A4.688 4.688 0 0074.82 0h-.755c.01.118.02.235.027.353-1.256.103-2.512.201-3.768.301m6.698 1.849c.074.177.149.355.225.532a1.32 1.32 0 00-.549.002 8.01 8.01 0 00.324-.534M86.66.868L86.75 2l.754-.059c-.577-1.087-.019-.454-.844-1.073m-2.49 2.098l-1.478.496c.287.658.46 1.035.688 1.305h2.063c-.114-.712-.388-1.267-1.273-1.801m1.389-1.63l-1.886.152.845 1.071c.666-.582.591-.407 1.041-1.223M81.491 0h-.298l.096.159.202-.159m8.669 0h-1.237c.334.157.783.261 1.508.568A5.326 5.326 0 0190.16 0m1.86 4.768h.304c.729-.416.862-.426 1.366-1.424l-1.132.091-.538 1.333"/><path clip-path="url(#SVGID_2_)" d="M91.787 0c-.336.266-.605.513-.918 1.293-.252.019-.503.04-.755.06l.16.266.192 2.76c-.952.138-1.7.23-2.282.389h3.499a17.742 17.742 0 00-.314-1.813l.404.162.981-1.975c-.02-.252-.042-.502-.061-.754.164.493.329.985.497 1.479.262.106.523.21.784.317l-.06-.755.58-1.429h-2.707zm3.23.96c.857-.318 1.712-.639 2.569-.96h-2.38a7.96 7.96 0 00-.189.96M80.581 2.009l-1.6-1.01c.166.492.333.985.498 1.479.368-.155.736-.312 1.102-.469m-2.293-.196l.814.693c-.586-.674-.048-.226-.814-.693"/><path clip-path="url(#SVGID_2_)" d="M83.232 2.578l.336-.076.049.05c.318-.021.633-.042.942-.061-.138-.502-.068-.608.366-.607a10.068 10.068 0 00-.388-1.297c-.715-.083-1.46-.162-2.218-.24l-1.09.362.011-.122-.086.212-.253-.596-1.192-.121c.289.666.438 1.629.484 2.731 1.004-.089 2.036-.166 3.039-.235m-5.457-1.515l-1.18.094c.087.136.174.256.26.36l1.113-.09a3.205 3.205 0 01-.193-.364M76.426 3.25l.384-.058c-.039-.046-.074-.089-.123-.144 1.704-.443.541-.728 1.887-.15l-.031-.091c-.774-.55-1.239-.749-1.688-1.29l-.287.023c-.365 1.193-.216.893-.801 1.406l.984-.279-.325.583m-.659-.303l-.429.122.217.069a7.44 7.44 0 01.212-.191m-.429.122l-.41-.132c-.011.086-.021.172-.034.258l.444-.126"/><path clip-path="url(#SVGID_2_)" d="M79.386 2.889c.262-.026.525-.05.794-.074-.177-1.299-.706-1.818-.593-2.651-.059-.048-.098-.069-.15-.109A104.32 104.32 0 0078.912 0H77.65c-.118.299-.055.67.125 1.064l1.023-.082.588 1.907m8.932-1.527a6.38 6.38 0 00-.054.899c1.403-.095 2.168-.176 1.716-.269.253-.422-.932-.758-2.778-1.051-.172.261-.551.2-.831.577l1.947-.156m-14.744-.227c-.115.085-.25.178-.432.299l.012.144.836-.209c.031.407.065.814.098 1.221.234.135.494.233.841.346L75.315 0h-.888c-.225.42-.318.632-.486.819.319.153.601.316.801.49-.44-.061-.819-.12-1.168-.174"/><path clip-path="url(#SVGID_2_)" d="M73.154 1.578l-1.398.349.03.378c.935.834.663.792 2.354.951-.018-.222-.034-.444-.053-.666-.285-.163-.546-.384-.916-.779l-.017-.233M97.527 0l-.052.626c.9.708.883.528 1.382 1.635l.377.032c1.016-.679 1.082-.942 1.697-2.135L100.828 0h-3.301zM73.574 1.135c.164-.12.28-.219.367-.316C73.308.515 72.528.248 71.897 0h-.822c-.17.421-.341.841-.51 1.263.914-.43 1.672-.334 3.009-.128"/><path clip-path="url(#SVGID_2_)" d="M101.339 4.367l-.723-.44 1.131.096.125-1.509c-1.967.239-2.14.251-2.827 2.041-1.732-1.47-1.835-1.757-3.926-2.984l-.378-.031c-.01.126-.021.25-.03.377 1.178 1.729 1.638 1.813 1.668 2.853h4.573M97.148 0h-.377l.359.218c.007-.073.013-.145.018-.218m-.113 1.349l.062-.753-.754-.063c.47.759.011.229.692.816M86.294 4.53l.882.005c-.012-.015-.021-.024-.033-.041.097-.387.191-.773.287-1.161.62.375 1.023.738 1.346 1.211l.49.003c-.581-1.148-.983-1.301-1.001-2.287-.609.041-1.334.085-2.141.134l.17 2.136M55.706.55c.397.223.796.444 1.191.665-.019-.252-.04-.505-.062-.755-.375.031-.753.061-1.129.09m1.84 4.028l.016.189h.452a32.617 32.617 0 01-.468-.189M44.98 4.064c-.245-.081-.361-.35-.378.028-.376.031-.754.062-1.131.091.177.251.305.433.42.584h1.84c-.041-.147-.175-.25-.751-.703M61.394.477L60.835 0h-.074c.276.346-.029.074.633.477m9.729 3.019l.754-.061a95.403 95.403 0 01-.06-.753c-.672.586-.226.047-.694.814m9.957 1.102l.099.17h1.323l-1.422-.17m-14.711.17h1.081l-.446-.565c-.365.318-.507.412-.635.565m-1.668 0h.07v-.006l-.07.006m-4.953-1.122c-.187.372-.371.747-.557 1.122h1.828l-.486-.806a64.327 64.327 0 00-.785-.316m-1.915-.228l1.132-.09c.21-.524.421-1.046.633-1.569-1.099.677-1.181.501-1.765 1.659m33.111 1.154c.028-.002-.012-.004-.097-.008a.034.034 0 00.004.012l-.622.049c-.027.052-.038.097-.05.142h2.233c-.448-1.474-.61-2.976-.523-4.767h-.782c-.665 1.05-.813 2.669-.463 3.963l.212-.524c.028.378.058.756.088 1.133M87.226 0h-1.113l.23.382-1.13.089L85.29 0h-.995c.091.198.171.394.242.587.972.112 1.877.229 2.665.354.101-.151.122-.425.024-.941m-9.317 4.09l1.915.227-.131-.426c-.822-.011-1.455.037-2.027.064l.243.135m2.297-.983c.003.133.004.268.005.405l.023.016c-.002-.154-.016-.285-.028-.421"/><path clip-path="url(#SVGID_2_)" d="M79.412 2.975c.094.306.188.61.281.917.166.002.329.004.513.012.003-.131.005-.262.005-.391a6.5 6.5 0 01-.799-.538"/><path clip-path="url(#SVGID_2_)" d="M80.206 3.903c-.002.128 0 .252-.004.382l.279-.021c-.072-.12-.145-.239-.216-.359-.022-.002-.037-.001-.059-.002m-2.237-2.475c.07.113.138.227.223.34l-.117-.349-.106.009m8.402.09l-.314.025.03.371.091.002c.053-.172.121-.3.193-.398m-.247.877l-.038-.481c-.537-.002-.908-.029-1.16-.029.043.19.083.383.119.576l1.079-.066m-5.643 1.869l.145.24 1.977.009a2.692 2.692 0 00-.687-.363l-1.435.114m-3.772.066c.024-.052.041-.097.068-.151-.183.048-.196.099-.068.151m-2.431.438h2.247c.035-.093.067-.185.112-.283a484.68 484.68 0 01-2.24-.016c-.05.105-.085.202-.119.299m2.36-.284l.816.005c-.361-.055-.621-.108-.745-.159-.026.053-.048.104-.071.154m2.748-1.595l-.074.007.1.079-.026-.086m-.821.084c.245-.027.493-.052.746-.077a6.514 6.514 0 01-1.119-1.128l.351 1.039.123.087c-.033.026-.066.053-.101.079"/><path clip-path="url(#SVGID_2_)" d="M77.667 3.955a3.659 3.659 0 01-.321-.197l-1.259.102.339-.609c-1.909.3-3.192.687-3.042 1.199-.078.007.308.013 1.013.02a7.27 7.27 0 01.528-.896c1.137.404 1.885.422 2.742.381"/><path clip-path="url(#SVGID_2_)" d="M77.347 3.759l.248-.021.971-.765a48.03 48.03 0 00-1.755.219c.265.315.344.431.536.567m2.846-.946l-.015.001c.012.091.02.193.027.293-.001-.101-.007-.195-.012-.294M76.654 0h-.59l.065.817-.726.436 1.19-.095c-.128-.2-.26-.426-.403-.723.157-.145.311-.29.464-.435m3.012 0h-.309c.028.02.05.032.079.055l.273.028c-.013-.031-.028-.054-.043-.083m3.697 0h-2.547l.086.203 1.418.144L83.363 0m11.504.029l.18-.029h-.162a.736.736 0 00-.018.029m-8.748 4.739h.194a18.924 18.924 0 01-.02-.237l-.154-.001-.02.238m1.245 0h1.542c-.044-.073-.084-.154-.131-.224l-1.6-.009c.069.088.129.158.189.233m-4.443 0h.355a19.636 19.636 0 00-.02-.251l-.653-.003c.095.067.205.157.318.254m7.723-.805l-.105.263c-.126.126-.21.233-.271.33.274.004.469.007.58.01a4.228 4.228 0 01-.204-.603m-.415.662c.011-.021.023-.045.039-.069l-1.003-.008c.026.053.051.091.077.147l.887-.07m-10.316.143h.462l.326-.138c-.024-.042-.05-.083-.076-.125l-3.171-.017c.585.089 1.452.183 2.459.28"/><path clip-path="url(#SVGID_2_)" d="M85.294 4.053a37.098 37.098 0 00-.249-1.592l-.486.03c.049.176.111.385.201.675-1.131-.387-.501.019-1.143-.614l-.385.026-2.272.513c.384.88.587.923.956 1.058l1.302-.104c.015.158.026.314.038.471l2.883.015c.019-.225.036-.447.057-.671-1.024-.251-.615-.382-.902.193M89.145 0h-.742c.159.047.345.103.581.169L89.145 0m16.575 3.215l-.108-.009c-1.152-1.407-.695-1.111.088-2.408l.021.022V0h-.978c.152.108.312.205.454.326-.444-.147-.824-.231-1.188-.326h-1.737M50.396.596C49.371.423 48.344.253 47.318.082l.061.755c-.212.522-.421 1.045-.634 1.568l1.568.634c-.424 1.819.367.94-1.388 1.628.044.039.079.065.12.101h7.58c.231-.193.539-.423.977-.793l-.121-1.508c-.842.574-1.681 1.145-2.521 1.719.978-1.162 1.369-1.245 1.645-3.167-1.193.252-1.516-.266-2.414-1.019h-1.76c-.012.177-.024.366-.035.596M63.84 0c-.783.697-1.869.957-3.17.914l.12 1.509c2.469-.372 3.71-.359 4.028-1.839l1.13-.091c.135 1.535-.02 2.446 1.402 3.303l1.479-.496c-.634-1.452-.707-1.548-2.065-2.114.222-.395.441-.79.66-1.186H63.84zm4.492 1.82c.252-.018.503-.038.755-.06-.698-.289-.125-.362-.755.06M58.724.311L57.955 0h-.774l.033.431c.504-.041 1.006-.081 1.51-.12m-4.149.33A5.961 5.961 0 0054.248 0h-1.036l1.363.641"/><path clip-path="url(#SVGID_2_)" d="M104.603 4.788l.174-.432-1.568-.634c.424-1.818-.367-.939 1.388-1.628a8.284 8.284 0 00-.405-.335l-.219-.548-.249.21c-.407-.282-.556-.387-.784-1.091-1.363.36-2.728.723-4.09 1.084-.106-.202-.213-.403-.318-.605l.164-.04-.489-.578L98.104 0h-.508c-.107 1.847-.197 1.533-1.676 2.788l.121 1.508c.195-.135.393-.268.587-.4a1.258 1.258 0 01-.104.109c.44.03.761-.057 1.004-.209-.172.256-.305.558-.415.972h3.839"/><path clip-path="url(#SVGID_2_)" d="M98.318 2.743l.242-.166c-.14.168-.269.313-.387.445.052-.096.099-.19.145-.279m7.402-1.255v-.23l-.053-.007c.025.094.039.166.053.237m-52-.226l.657.561.378-.03-.072-.92c.124-.067.245-.14.36-.22l.09 1.11.915-.072a5.203 5.203 0 01-.373.892 15.512 15.512 0 002.94-1.098l1.041-.083c-.558.852-1.168 1.149-1.733 2.034.418.483.659.694.849 1.021-.506-.428-.894-.515-1.875-.833-.26.245-.416.366-.521.454a8.422 8.422 0 00-.67-.433c-.511-.594-.376-.54-1.164-.973-.638-.075-1.275-.15-1.915-.227l.716 2.322h.841l-.305-.902c1.301.558.258.311 1.726-.106l-.261.644-.604.365h5.198l.114-.461c.215.137.497.234.889.331l.044.13h6.166c.302-.202.604-.347.939-.537l2.474-.559c-.644-1.473-.768-.6-2.035-1.735l1.914.228C69.409.38 69.648.795 67.684.866A7.497 7.497 0 0168.991 0h-6.193c.39 1.358.522.89 1.579 2.267l-.284 1.162a5.339 5.339 0 01-.56-.379l.046-.064-.437-.724-.443-.11c-.271-.415-.487-.919-.732-1.59-1.619.973-.009.874-.868 1.853-.174-.786-.389-1.201-.854-1.802.372-.211.734-.417 1.098-.613h-5.529l-.065.023.02-.023m-3.441 4.768a16.321 16.321 0 01-.078-2.292M70.324.654c.567.589.91.599 1.597 1.013l-1.101.465.437.726c2.452.123 3.24-.379 5.202.285-.175.121-.278.317-.328.566-.453.129-.907.257-1.359.387l.663-1.193-1.508.12-.925.731-.838.065a6.401 6.401 0 00-.877-.585c.012.652.114 1.131.232 1.533h1.62a6.658 6.658 0 00-.78-.788c.401.163.805.325 1.207.489a4.607 4.607 0 00-.011-.122c.234.151.434.28.617.421h5.587a2.404 2.404 0 01-.003-.035l1.412-.112-.091-1.131c-.282.021-.565.045-.85.067.037-.066.091-.16.171-.291-.252.022-.503.041-.755.062.008.091.016.184.022.275l-.097.008.06.754c-.576-.523-.648-.658-1.225-.746-.073-.659-.378-1.126-1.195-1.508.188-.468.195-.847.307-1.649-.25.021-.503.039-.754.06a8.434 8.434 0 01-.251-.16c.033-.086.072-.189.117-.313-.502.041-1.005.081-1.508.12l.156.465a.165.165 0 00-.022.009A4.688 4.688 0 0074.82 0h-.755c.01.118.02.235.027.353-1.256.103-2.512.201-3.768.301m6.698 1.849c.074.177.149.355.225.532a1.32 1.32 0 00-.549.002 8.01 8.01 0 00.324-.534M86.66.868L86.75 2l.754-.059c-.577-1.087-.019-.454-.844-1.073m-2.49 2.098l-1.478.496c.287.658.46 1.035.688 1.305h2.063c-.114-.712-.388-1.267-1.273-1.801m1.389-1.63l-1.886.152.845 1.071c.666-.582.591-.407 1.041-1.223M81.491 0h-.298l.096.159.202-.159m8.669 0h-1.237c.334.157.783.261 1.508.568A5.326 5.326 0 0190.16 0m1.86 4.768h.304c.729-.416.862-.426 1.366-1.424l-1.132.091-.538 1.333"/><path clip-path="url(#SVGID_2_)" d="M91.787 0c-.336.266-.605.513-.918 1.293-.252.019-.503.04-.755.06l.16.266.192 2.76c-.952.138-1.7.23-2.282.389h3.499a17.742 17.742 0 00-.314-1.813l.404.162.981-1.975c-.02-.252-.042-.502-.061-.754.164.493.329.985.497 1.479.262.106.523.21.784.317l-.06-.755.58-1.429h-2.707zm3.23.96c.857-.318 1.712-.639 2.569-.96h-2.38a7.96 7.96 0 00-.189.96M80.581 2.009l-1.6-1.01c.166.492.333.985.498 1.479.368-.155.736-.312 1.102-.469m-2.293-.196l.814.693c-.586-.674-.048-.226-.814-.693m-.773-.777c-1.199.584-.37.459-1.842-.186l-.069-.004c.611 2.796 1.136 2.619-1.576 3.9-.584-.664-.407-.59-1.225-1.037.323-.66.648-1.32.973-1.98-1.441-.661-2.688-.194-3.079-.502l-.817-.69c1.03.054.077-.137 1.161.283-.032-.136-.068-.255-.104-.377h6.292c.085.232.178.442.286.593m-5.844 2.769c.461 1.036.63.128.095 1.131l-.471-1.101c.125-.01.25-.022.376-.03"/><path clip-path="url(#SVGID_2_)" d="M93.475 1.219l-1.13.096c.132-.295.227-.582.338-.872h.904a6.277 6.277 0 01-.112.776M77.482.66c.026-.088.049-.156.071-.217h2.188l.002.028c-.753.064-1.507.125-2.261.189M55.993 2.458c.113-.136.229-.274.346-.409l1.507-.125c-.345.406-.69.816-1.037 1.226.845.758.57.689 1.981.971-1.092-.389 1.68.38 2.67.157.021.695.053.615-.057.932h-3.421a2.721 2.721 0 01-.294-.615l-1.628.615h-.977l-.128-1.525c.466-.754.304-.651 1.038-1.227M61.938.442c-.07.076-.184.186-.385.411l-.25-.411h.635zm4.581.755c.442-.612.124-.02-.065-.755.767.064 1.53.125 2.293.189-.312.786-.627 1.571-.939 2.358-.581-1.581-.347-.947-1.289-1.792m38.928 2.027c-.704-.229-.809-.378-1.091-.785l.21-.249-.548-.218a8.764 8.764 0 00-.335-.406c-.689 1.755.189.963-1.629 1.387-.212-.522-.423-1.045-.633-1.567l-.432.174a9.62 9.62 0 00-.764-1.118H96.86c-.675 1.215-.281 1.02-1.504.839.401.66.126.354.47.627l.604 2.861c.796-.675.938-1.009 1.35-2.011-.782-.228-.962-.356-1.222-.536l.428.108.01.114.337-.028.951.237.049-.623c.31.075.576.137.81.197M104.29.442h.23l.007.051c-.093-.023-.166-.037-.237-.051"/><path clip-path="url(#SVGID_2_)" d="M95.738 1.032l-1.203.731c-.162 1.105-.619 2.273-1.115 3.448h-2.418c.871-1.054.824-1.534 2.634-1.41l.009-3.358h2.569l-.061.035c.055.099.009.231-.415.554M64.539 4.78c.167.129.303.273.416.43h-2.102c.542-.313.841-.668 1.623-1.184l.063.754m15.646-3.586c-.467.76-.01.231-.691.817.232-.273.46-.546.691-.817m11.686.948c-.104-.262-.211-.522-.317-.785.366.157.733.312 1.102.468l-.785.317M85.715 5.21c.636-.59.084-.275 1.09 0h-1.09zM79.51 1.721c-.115.135-.229.273-.346.408l-1.507.125c.346-.406.689-.816 1.036-1.225-.339-.304-.497-.472-.657-.586h2.507a.78.78 0 00.004.05c-.465.754-.303.652-1.037 1.228m-30.948 2.21c.127-.01.252-.022.378-.033l.439.724c-.272-.23-.543-.462-.817-.691m20.422-.951c-.442.614-.125.021.064.755-.768-.064-1.53-.125-2.293-.189.312-.785.627-1.57.939-2.358.582 1.582.348.948 1.29 1.792m-12.975-.813l-.691.818c.467-.76.01-.231.691-.818m45.747 2.248c.502-.042 1.007-.084 1.509-.124m-3.144-1.257c1.825.724.014.873 1.289 1.79m-27.711.04c-.126.01-.252.02-.377.032.248-1.397-.089-.768.627-1.572.146.24.295.482.44.724l-.69.816m1.884-.157c.617-.819-.031-.28 1.069-.851l-.692.819c-.124.012-.251.021-.377.032m5.63.503H79.97l-.176-.097.724-.44.784.314-.089.223"/><path clip-path="url(#SVGID_2_)" d="M55.789 4.085c-.011-.128-.022-.253-.031-.378.753-.063 1.508-.124 2.262-.188-.237.801-.341.411.416.711-.122-.445-.268-.836-.447-1.089 1.219-.593.341-.453 1.917.219-.396-1.827-.756-2.396-.229-2.918h2.976l.048.027c-.324.661-.649 1.319-.974 1.979 1.441.662 2.688.195 3.08.502l.816.691c-1.031-.053-.078.137-1.162-.283.214.866.458 1.431.718 1.852h-6.522a14.878 14.878 0 00-.187-.851l.071.851h-1.936c.064-.27-.114-.526-.816-1.125m11.845.906l.018.22h-.642c-.037-.046-.074-.092-.129-.154.251-.025.501-.043.753-.066m2.267.219h-.674c.464-.283.928-.564 1.391-.848-.237.284-.477.565-.717.848m22.425 0c.423-.996.588-.744 2.202-.95-2.271-1.297-2.324-.049-2.545-3.203-1.228 1.524-1.171 1.421-3.235 2.169l-.659 1.193c.01.126.02.252.032.377 1.257-.103 2.513-.211 3.768-.313-.253.363-.47.551-.711.728h-4.132c.455-1.184 1.16-1.614 1.578-3.493l-3.27 1.792c-.178-.62-.355-1.237-.534-1.854-.831.665-1.048 1.298-1.729 2.042-.041-.502-.084-1.004-.126-1.505-.148-.958-.02-1.229.147-1.75h1.554l.058.082c.007-.031.016-.052.023-.082h17.814l.009.108c1.407 1.152 1.111.695 2.408-.088l-.021-.02h.819v.977c-.107-.152-.205-.311-.325-.453.146.444.23.824.325 1.187v1.737c-2.72-.412-4.486-1.439-6.505-1.925m-21.756-.93c-1.199.584-.37.459-1.842-.186l-.069-.004c.611 2.796 1.136 2.619-1.576 3.9-.584-.664-.407-.59-1.225-1.037.323-.66.648-1.32.973-1.98-1.441-.661-2.688-.194-3.079-.502l-.817-.69c1.03.054.077-.137 1.161.283-.032-.136-.068-.255-.104-.377h6.292c.085.232.178.442.286.593m-5.844 2.769c.461 1.036.63.128.095 1.131l-.471-1.101c.125-.01.25-.022.376-.03"/><path clip-path="url(#SVGID_2_)" d="M93.475 1.219l-1.13.096c.132-.295.227-.582.338-.872h.904a6.277 6.277 0 01-.112.776M77.482.66c.026-.088.049-.156.071-.217h2.188l.002.028c-.753.064-1.507.125-2.261.189M55.993 2.458c.113-.136.229-.274.346-.409l1.507-.125c-.345.406-.69.816-1.037 1.226.845.758.57.689 1.981.971-1.092-.389 1.68.38 2.67.157.021.695.053.615-.057.932h-3.421a2.721 2.721 0 01-.294-.615l-1.628.615h-.977l-.128-1.525c.466-.754.304-.651 1.038-1.227M61.938.442c-.07.076-.184.186-.385.411l-.25-.411h.635zm4.581.755c.442-.612.124-.02-.065-.755.767.064 1.53.125 2.293.189-.312.786-.627 1.571-.939 2.358-.581-1.581-.347-.947-1.289-1.792m38.928 2.027c-.704-.229-.809-.378-1.091-.785l.21-.249-.548-.218a8.764 8.764 0 00-.335-.406c-.689 1.755.189.963-1.629 1.387-.212-.522-.423-1.045-.633-1.567l-.432.174a9.62 9.62 0 00-.764-1.118H96.86c-.675 1.215-.281 1.02-1.504.839.401.66.126.354.47.627l.604 2.861c.796-.675.938-1.009 1.35-2.011-.782-.228-.962-.356-1.222-.536l.428.108.01.114.337-.028.951.237.049-.623c.31.075.576.137.81.197M104.29.442h.23l.007.051c-.093-.023-.166-.037-.237-.051"/><path clip-path="url(#SVGID_2_)" d="M95.738 1.032l-1.203.731c-.162 1.105-.619 2.273-1.115 3.448h-2.418c.871-1.054.824-1.534 2.634-1.41l.009-3.358h2.569l-.061.035c.055.099.009.231-.415.554M64.539 4.78c.167.129.303.273.416.43h-2.102c.542-.313.841-.668 1.623-1.184l.063.754m15.646-3.586c-.467.76-.01.231-.691.817.232-.273.46-.546.691-.817m11.686.948c-.104-.262-.211-.522-.317-.785.366.157.733.312 1.102.468l-.785.317m-34.683-.261l2.459.008c-.426.246-1.485.19-2.459-.008M.059 5.268a9.52 9.52 0 011.117-.723 71.485 71.485 0 00-.175-.408c.523-.197 1.046-.398 1.568-.599-.423-1.719.368-.888-1.387-1.539.151-.126.286-.229.405-.317.074-.172.145-.346.219-.518l.249.198c.407-.267.556-.365.785-1.031 1.362.34 2.727.683 4.088 1.025l.319-.572-.164-.038A60.1 60.1 0 007.572.2l.101-.182h.507c.108 1.746.198 1.45 1.676 2.636l-.12 1.426a84.783 84.783 0 00-.588-.379c.038.042.073.077.105.104-.44.029-.76-.054-1.003-.198.173.241.304.526.416.918H4.827"/><path clip-path="url(#SVGID_2_)" d="M7.459 2.611l-.242-.157c.14.159.269.296.387.42-.051-.09-.099-.179-.145-.263m-7.4-1.186v-.217l.05-.007a2.523 2.523 0 00-.05.224m65.185 3.1h-1.427c-.083-.85.031-1.736.36-2.441l-1.508-.112a7.18 7.18 0 01-.336.593l.381.029c-.021.238-.04.475-.062.713l-.591-.337c-.225.324-.384.553-.447.93l1.01-.235-.387.86h-2.819c.098-1.165.197-2.329.293-3.494l1.213.092-.323-.483c.344-.08.688-.159 1.031-.24l-.163-.382h5.063c-.415.823-.742 1.619-.958 2.431a11.398 11.398 0 00-.33 2.076M61.823.845c.015.117.028.233.044.349l.108.008-.152-.357m-3.555 3.68H53.45a14.58 14.58 0 00.079-2.166c1.006.075 2.013.151 3.016.228.022-.24.042-.477.062-.713-1.469-.274-3.139-.264-4.547-.663l-.657.53c-.126-.01-.253-.02-.378-.028l.072-.87a4.014 4.014 0 01-.361-.207l-.089 1.049-.915-.069c.083.258.201.532.373.844a16.171 16.171 0 01-2.941-1.038l-1.041-.079c.559.806 1.168 1.087 1.734 1.924-.418.456-.659.656-.849.964.506-.405.893-.487 1.875-.788.26.232.416.347.522.43a8.27 8.27 0 01.669-.408c.511-.563.376-.511 1.164-.92l1.915-.214-.715 2.195h-.841l.304-.854c-1.3.527-.257.294-1.725-.101.087.203.175.405.261.608l.604.346h-5.198l-.114-.436c-.215.129-.497.221-.889.313l-.044.123H38.63c-.301-.191-.605-.328-.939-.509-.824-.176-1.649-.353-2.474-.527.643-1.393.767-.568 2.035-1.641l-1.914.215C36.372.376 36.133.769 38.097.835a7.686 7.686 0 00-1.309-.817h6.194c-.389 1.284-.522.842-1.58 2.143.095.367.191.732.285 1.099.21-.119.394-.237.559-.358l-.046-.061.437-.685.443-.103c.271-.393.487-.87.734-1.504 1.618.92.007.827.867 1.753.174-.744.388-1.137.854-1.705-.373-.199-.735-.393-1.098-.579h5.529l.066.022-.02-.022h4.502l.056.168-.159.06c.38.295.826.585 1.502.857-.031-.362-.065-.724-.099-1.085h2.505c.204.085.43.167.702.244-.368 1.738-.467 3.03-.753 4.263M35.454.637c-.568.557-.91.566-1.597.957l1.101.441-.437.685c-2.452.117-3.24-.358-5.202.27.175.115.278.3.328.535.453.122.907.243 1.36.366l-.664-1.128 1.508.114.925.691.838.063c.282-.21.579-.399.877-.554a4.99 4.99 0 01-.233 1.45h-1.62a6.46 6.46 0 01.781-.746l-1.207.463.01-.115a9.59 9.59 0 00-.617.398h-5.587l.003-.034c-.472-.034-.942-.069-1.412-.106l.091-1.069.849.065a6.61 6.61 0 00-.17-.276c.252.021.503.039.754.059l-.022.26.097.007-.06.713c.576-.495.649-.622 1.225-.706.073-.623.378-1.064 1.195-1.426-.187-.442-.195-.8-.307-1.558l.754.056c.099-.057.182-.107.251-.151a13.717 13.717 0 01-.117-.296c.502.039 1.005.077 1.508.114l-.156.44.022.007c.139-.232.285-.426.435-.605h.755c-.01.111-.02.222-.028.334 1.257.094 2.513.187 3.769.282m-6.698 1.748l-.225.503c.219-.036.399-.034.549.002a7.665 7.665 0 01-.324-.505M19.118.839l-.09 1.071-.754-.056c.577-1.028.019-.43.844-1.015m2.49 1.984l1.478.469c-.287.622-.46.978-.689 1.234h-2.062c.114-.673.388-1.199 1.273-1.703m-1.389-1.542l1.886.144-.845 1.012c-.667-.55-.591-.384-1.041-1.156M24.287.018h.298l-.096.151-.202-.151m-8.669 0h1.237c-.334.149-.783.247-1.508.537.163-.29.232-.443.271-.537m-1.86 4.507h-.304c-.728-.393-.862-.403-1.366-1.346l1.132.086c.179.422.359.84.538 1.26"/><path clip-path="url(#SVGID_2_)" d="M13.991.018c.336.251.605.485.918 1.223l.755.056-.161.252-.192 2.609c.952.131 1.7.218 2.282.367h-3.499c.073-.558.179-1.17.315-1.713l-.405.153-.981-1.867c.019-.238.042-.475.06-.713-.164.466-.329.931-.497 1.398-.261.1-.523.199-.784.3l.06-.714-.578-1.351h2.707zm-3.23.908C9.904.625 9.048.322 8.192.019h2.38c.073.261.138.555.189.907m14.436.991c.533-.317 1.066-.637 1.599-.955-.166.465-.333.931-.498 1.399l-1.101-.444m2.293-.185l-.815.655c.587-.637.049-.213.815-.655"/><path clip-path="url(#SVGID_2_)" d="M22.546 2.456l-.336-.072-.049.047-.942-.057c.137-.475.068-.575-.367-.574.099-.409.225-.815.388-1.227.715-.077 1.46-.153 2.218-.227l1.09.343-.011-.116.086.201.253-.564 1.192-.114c-.289.63-.438 1.54-.484 2.582a162.597 162.597 0 00-3.038-.222m5.457-1.432l1.18.089a3.5 3.5 0 01-.26.34l-1.113-.084a3.09 3.09 0 00.193-.345m1.349 2.067a29.525 29.525 0 00-.384-.055l.123-.136c-1.704-.419-.541-.688-1.886-.142l.031-.086c.774-.52 1.239-.708 1.687-1.219l.288.021c.365 1.128.215.844.8 1.33l-.984-.265.325.552"/><path clip-path="url(#SVGID_2_)" d="M30.011 2.804l.429.115-.217.066a7.088 7.088 0 00-.212-.181m.429.115l.41-.125.034.244-.444-.119m-4.047-.169a84.064 84.064 0 00-.794-.07c.176-1.228.706-1.719.592-2.506.059-.046.098-.065.151-.104l.524-.051h1.262c.118.282.055.633-.125 1.005L26.98.947c-.196.601-.393 1.201-.587 1.803m-8.934-1.444c.046.356.058.62.054.85-1.403-.091-2.167-.166-1.716-.256-.253-.398.932-.716 2.778-.993.172.247.551.189.831.545l-1.947-.146m14.745-.215c.116.08.25.168.432.283l-.012.136-.836-.198c-.031.385-.065.77-.097 1.155-.235.127-.494.22-.841.327L30.463.018h.888c.224.397.318.597.486.774-.319.145-.6.299-.801.464a58.38 58.38 0 001.168-.165"/><path clip-path="url(#SVGID_2_)" d="M32.624 1.51l1.398.33-.03.357c-.935.789-.663.749-2.355.899l.053-.629c.285-.154.546-.363.916-.737l.018-.22M8.25.018l.053.592c-.901.669-.883.499-1.382 1.546-.128.009-.252.02-.377.03-1.016-.642-1.082-.891-1.697-2.019.042-.059.068-.1.102-.149H8.25zm23.954 1.073a2.284 2.284 0 01-.367-.299c.634-.288 1.413-.54 2.044-.774h.822c.17.398.341.795.51 1.194-.914-.406-1.672-.315-3.009-.121"/><path clip-path="url(#SVGID_2_)" d="M2.65 5.366c.724-1.725.872-.013 1.789-1.219.242-.14.482-.276.723-.416l-1.131.09-.125-1.427c1.967.226 2.139.237 2.827 1.93 1.733-1.39 1.835-1.661 3.926-2.823l.378-.029c.009.119.022.237.031.356C9.89 3.463 9.429 3.543 9.4 4.525H4.826M8.629.018h.377l-.359.206-.018-.206m.114 1.275a81.888 81.888 0 01-.062-.712l.754-.06c-.47.719-.011.218-.692.772m10.741 3.009l-.882.004.033-.038-.287-1.098c-.62.354-1.023.698-1.345 1.145l-.491.003c.581-1.084.984-1.229 1.001-2.162.61.039 1.334.08 2.141.126l-.17 2.02M50.071.539c-.397.211-.795.419-1.191.628.019-.238.04-.476.062-.713.376.029.753.058 1.129.085m-1.839 3.808l-.015.179h-.452l.467-.179m12.566-.487c.245-.075.361-.33.379.028.375.029.753.057 1.131.084-.178.237-.306.41-.421.553h-1.84c.041-.138.175-.236.751-.665M44.384.47l.559-.451h.074c-.276.328.028.069-.633.451m-9.729 2.854l-.754-.058c.021-.237.041-.474.06-.712.673.553.227.045.694.77m-9.957 1.041l-.099.16h-1.323c.474-.052.948-.105 1.422-.16m14.711.16h-1.081c.148-.178.297-.354.446-.534.365.303.507.392.635.534m1.668 0h-.071V4.52l.071.005m4.953-1.06l.557 1.061h-1.829l.487-.761c.262-.101.523-.202.785-.3m1.915-.215l-1.132-.085c-.21-.496-.421-.989-.633-1.484 1.099.64 1.181.474 1.765 1.569M14.833 4.341c-.028-.002.012-.004.097-.006l-.004.01.622.046c.027.05.038.092.05.135h-2.234c.45-1.394.612-2.813.525-4.508h.782c.665.993.812 2.523.463 3.747l-.212-.495c-.027.357-.059.713-.089 1.071m3.72-4.323h1.113l-.23.361c.378.027.755.056 1.13.084l-.078-.445h.995c-.09.188-.17.372-.242.555a69.2 69.2 0 00-2.665.334c-.1-.142-.122-.401-.023-.889m9.316 3.867l-1.915.215.131-.402c.822-.011 1.455.034 2.027.06l-.243.127m-2.297-.929c-.003.126-.004.254-.005.383l-.023.014c.002-.144.016-.268.028-.397m.794-.125l-.282.867c-.166.002-.329.003-.512.012a15.354 15.354 0 01-.005-.37c.273-.144.54-.319.799-.509"/><path clip-path="url(#SVGID_2_)" d="M25.572 3.709c.002.121 0 .238.004.362l-.279-.021.216-.34.059-.001m2.237-2.341c-.07.107-.138.214-.223.322l.117-.33.106.008m-8.402.085l.315.024-.03.351c-.033 0-.056.002-.091.001a1.261 1.261 0 00-.194-.376m.247.829l.038-.454c.537-.003.908-.028 1.16-.028-.043.179-.083.362-.119.545l-1.079-.063m5.643 1.768l-.145.226-1.977.009c.294-.197.511-.282.687-.344l1.435.109m3.772.062c-.025-.049-.041-.092-.069-.143.184.046.197.093.069.143m2.431.413h-2.247c-.036-.088-.068-.174-.113-.268.903-.005 1.675-.01 2.241-.015.05.101.085.192.119.283m-2.36-.267l-.816.004c.361-.051.621-.102.745-.149.026.049.048.097.071.145M26.393 2.75l.074.007-.1.074c.008-.027.016-.055.026-.081"/><path clip-path="url(#SVGID_2_)" d="M27.212 2.83c-.245-.025-.493-.049-.746-.073.427-.324.819-.69 1.119-1.066l-.35.982c-.042.029-.079.051-.124.082.035.024.067.049.101.075m.899.928c.143-.076.242-.133.321-.187l1.259.096-.339-.575c1.909.283 3.192.647 3.042 1.133.078.006-.308.013-1.013.019a6.965 6.965 0 00-.528-.848c-1.137.382-1.885.401-2.742.362m.321-.187a20.682 20.682 0 01-.248-.019l-.971-.723a54.16 54.16 0 011.755.206c-.266.298-.345.408-.536.536m-2.848-.893l.015.001c-.012.086-.019.183-.027.277.002-.095.008-.185.012-.278m3.539-2.66h.59l-.065.772.725.413-1.19-.09c.128-.189.26-.403.403-.684l-.463-.411m-3.012 0h.309c-.028.019-.05.031-.079.052l-.274.026c.015-.029.031-.05.044-.078m-3.696 0h2.547l-.086.192-1.418.136-1.043-.328M10.911.046l-.18-.028h.162l.018.028m8.748 4.479h-.194l.019-.224.155-.001.02.225m-1.245 0h-1.542c.044-.069.084-.146.131-.211l1.6-.009c-.07.085-.128.15-.189.22m4.443 0h-.356l.021-.237.653-.003c-.096.065-.205.15-.318.24m-7.723-.759l.106.247c.126.119.21.222.27.313-.274.003-.469.005-.58.008a3.82 3.82 0 00.204-.568m.415.625a.549.549 0 00-.039-.064l1.002-.008c-.026.049-.05.086-.077.139-.296-.021-.591-.045-.886-.067m10.315.134h-.462l-.326-.13.076-.119 3.171-.014c-.585.084-1.451.173-2.459.263"/><path clip-path="url(#SVGID_2_)" d="M20.484 3.851c.079-.532.155-1.026.249-1.506l.486.029c-.048.167-.111.364-.201.639 1.131-.366.501.017 1.143-.581l.385.025 2.272.484c-.384.834-.587.874-.956 1.001l-1.302-.098c-.014.148-.026.297-.038.444-.998.004-1.976.008-2.883.014a62.48 62.48 0 00-.056-.635c1.023-.235.614-.362.901.184M16.633.018h.742c-.159.044-.345.097-.581.16l-.161-.16M.059 3.058l.108-.009C1.319 1.72.862 1.999.079.773l-.02.021V.018h.977C.883.12.725.213.582.327 1.025.188 1.405.109 1.77.018h1.737m51.875.564C56.407.418 57.434.258 58.46.096l-.062.714c.213.493.422.988.635 1.483-.523.199-1.046.398-1.568.599.424 1.719-.367.888 1.388 1.539-.044.037-.079.062-.12.095h-7.58c-.231-.182-.539-.399-.976-.75l.121-1.425 2.521 1.625c-.978-1.099-1.37-1.177-1.645-2.994 1.192.238 1.515-.251 2.413-.963h1.76c.012.167.024.346.035.563M41.938.018c.783.659 1.869.905 3.17.864l-.12 1.427c-2.469-.352-3.71-.34-4.028-1.739-.377-.03-.754-.057-1.13-.086-.135 1.452.019 2.312-1.403 3.123l-1.478-.469c.634-1.373.707-1.463 2.065-1.998l-.66-1.122h3.584zm-4.493 1.721a48.704 48.704 0 01-.754-.057c.698-.273.125-.341.754.057m9.61-1.426l.768-.294h.775l-.034.407C48.06.387 47.558.349 47.055.313m4.148.312c.122-.262.229-.448.328-.606h1.036c-.455.202-.91.403-1.364.606"/><path clip-path="url(#SVGID_2_)" d="M.059 5.268a9.52 9.52 0 011.117-.723 71.485 71.485 0 00-.175-.408c.523-.197 1.046-.398 1.568-.599-.423-1.719.368-.888-1.387-1.539.151-.126.286-.229.405-.317.074-.172.145-.346.219-.518l.249.198c.407-.267.556-.365.785-1.031 1.362.34 2.727.683 4.088 1.025l.319-.572-.164-.038A60.1 60.1 0 007.572.2l.101-.182h.507c.108 1.746.198 1.45 1.676 2.636l-.12 1.426a84.783 84.783 0 00-.588-.379c.038.042.073.077.105.104-.44.029-.76-.054-1.003-.198.173.241.304.526.416.918H4.827"/><path clip-path="url(#SVGID_2_)" d="M7.459 2.611l-.242-.157c.14.159.269.296.387.42-.051-.09-.099-.179-.145-.263m-7.4-1.186v-.217l.05-.007a2.523 2.523 0 00-.05.224m52-.214l-.658.53c-.126-.01-.252-.02-.377-.028l.072-.87a4.014 4.014 0 01-.361-.207l-.089 1.049-.915-.069c.083.257.201.532.373.844a16.171 16.171 0 01-2.941-1.038l-1.041-.079c.558.806 1.168 1.087 1.734 1.924-.418.456-.66.656-.849.964.506-.405.893-.487 1.875-.788.26.232.416.347.521.43.223-.15.448-.287.67-.408.511-.563.376-.511 1.164-.92l1.915-.214-.715 2.195h-.841l.304-.854c-1.3.526-.257.294-1.725-.101l.261.608.604.346h-5.198l-.114-.436c-.215.129-.497.221-.889.313l-.044.123h-6.166c-.302-.191-.605-.328-.939-.509-.825-.176-1.649-.353-2.474-.527.643-1.393.767-.568 2.035-1.641l-1.914.215C36.371.376 36.132.769 38.096.835a7.686 7.686 0 00-1.309-.817h6.194c-.39 1.284-.523.842-1.58 2.143.095.367.191.732.285 1.099.21-.12.394-.237.559-.358l-.046-.061.437-.685.443-.103c.271-.393.487-.87.733-1.504 1.619.92.008.827.868 1.752.174-.744.388-1.136.853-1.704-.372-.199-.734-.394-1.097-.579h5.529l.065.022-.019-.022m3.439 4.507c.072-.662.107-1.382.078-2.166M35.454.637c-.568.557-.91.566-1.597.957l1.101.441-.437.685c-2.452.117-3.24-.358-5.202.27.175.115.278.3.328.535.453.122.907.243 1.36.366l-.664-1.128 1.508.114.925.691.838.063c.282-.21.579-.399.877-.554a4.99 4.99 0 01-.233 1.45h-1.62a6.46 6.46 0 01.781-.746l-1.207.463.01-.115a9.59 9.59 0 00-.617.398h-5.587l.003-.034c-.472-.034-.942-.069-1.412-.106l.091-1.069.849.065a6.61 6.61 0 00-.17-.276c.252.021.503.039.754.059l-.022.26.097.007-.06.713c.576-.495.649-.622 1.225-.706.073-.623.378-1.064 1.195-1.426-.187-.442-.195-.8-.307-1.558l.754.056c.099-.057.182-.107.251-.151a13.717 13.717 0 01-.117-.296c.502.039 1.005.077 1.508.114l-.156.44.022.007c.139-.232.285-.426.435-.605h.755c-.01.111-.02.222-.028.334 1.257.094 2.513.187 3.769.282m-6.698 1.748l-.225.503c.219-.036.399-.034.549.002a7.665 7.665 0 01-.324-.505M19.118.839l-.09 1.071-.754-.056c.577-1.028.019-.43.844-1.015m2.49 1.984l1.478.469c-.287.622-.46.978-.689 1.234h-2.062c.114-.673.388-1.199 1.273-1.703m-1.389-1.542l1.886.144-.845 1.012c-.667-.55-.591-.384-1.041-1.156M24.287.018h.298l-.096.151-.202-.151m-8.669 0h1.237c-.334.149-.783.247-1.508.537.163-.29.232-.443.271-.537m-1.86 4.507h-.304c-.728-.393-.862-.403-1.366-1.346l1.132.086c.179.422.359.84.538 1.26"/><path clip-path="url(#SVGID_2_)" d="M13.991.018c.336.251.605.485.918 1.223l.755.056-.161.252-.192 2.609c.952.131 1.7.218 2.282.367h-3.499c.073-.558.179-1.17.315-1.713l-.405.153-.981-1.867c.019-.238.042-.475.06-.713-.164.466-.329.931-.497 1.398-.261.1-.523.199-.784.3l.06-.714-.578-1.351h2.707zm-3.23.908C9.904.625 9.048.322 8.192.019h2.38c.073.261.138.555.189.907m14.436.991c.533-.317 1.066-.637 1.599-.955-.166.465-.333.931-.498 1.399l-1.101-.444m2.293-.185l-.815.655c.587-.637.049-.213.815-.655m.774-.734c1.199.552.37.433 1.842-.175l.069-.005c-.611 2.645-1.136 2.476 1.576 3.688.584-.628.407-.559 1.225-.98l-.973-1.871c1.441-.626 2.688-.184 3.079-.475l.817-.652c-1.031.05-.078-.13-1.162.267.033-.129.069-.242.104-.357h-6.292a2.494 2.494 0 01-.285.56m5.843 2.617c-.461.98-.63.121-.095 1.068.158-.347.315-.693.471-1.04-.125-.009-.25-.02-.376-.028"/><path clip-path="url(#SVGID_2_)" d="M12.303 1.171l1.13.091c-.132-.28-.227-.55-.338-.825h-.904c.022.221.049.466.112.734M28.295.642a3.538 3.538 0 00-.071-.205h-2.189a.211.211 0 00-.002.026c.755.061 1.509.118 2.262.179m21.49 1.7c-.114-.129-.23-.259-.346-.387l-1.507-.118c.345.384.69.772 1.037 1.159-.845.717-.57.651-1.981.919 1.091-.369-1.68.359-2.67.148-.022.658-.053.582.056.881h3.421c.105-.153.205-.336.294-.582l1.628.582h.977l.128-1.442c-.465-.713-.303-.616-1.037-1.16M43.84.437c.071.072.184.176.385.389l.25-.389h-.635zm-4.58.713c-.443-.579-.124-.019.065-.713-.767.06-1.53.117-2.293.178.312.743.627 1.485.939 2.229.581-1.495.346-.895 1.289-1.694M.331 3.067c.704-.217.809-.358 1.09-.743l-.21-.235.549-.206a8.82 8.82 0 01.335-.384c.689 1.659-.19.911 1.629 1.312l.633-1.482.431.164c.214-.354.456-.678.764-1.056h3.366c.675 1.148.281.964 1.504.793-.401.624-.126.335-.47.593l-.603 2.704c-.796-.637-.939-.954-1.35-1.902.782-.214.961-.335 1.222-.505l-.429.102-.009.108-.337-.027-.951.224-.049-.589c-.309.07-.575.129-.809.186-.157.886-.312 1.771-.47 2.655.768.036 1.2.072 1.538.164H4.768M1.488.437h-.23L1.25.486c.095-.024.167-.036.238-.049"/><path clip-path="url(#SVGID_2_)" d="M10.04.994l1.203.691c.162 1.045.619 2.15 1.115 3.26h2.418c-.871-.996-.824-1.45-2.634-1.333L12.133.437H9.564l.061.033c-.055.093-.009.218.415.524m31.199 3.543c-.167.122-.303.26-.416.407h2.102c-.542-.296-.841-.632-1.623-1.12-.021.237-.041.477-.063.713m-15.646-3.39c.467.718.01.218.691.772l-.691-.772m-11.686.896c.105-.248.211-.493.318-.742l-1.102.442c.261.1.522.201.784.3M.158 4.964c-.062.04-.106.064-.158.096m20.063-.116c-.636-.559-.084-.261-1.09 0h1.09zm6.205-3.299l.346.386 1.507.118c-.346-.384-.69-.771-1.036-1.158.338-.287.497-.447.657-.554h-2.507l-.004.047c.465.713.303.616 1.037 1.161m30.948 2.089l-.378-.031c-.146.229-.293.456-.438.685.271-.218.542-.437.816-.654m-20.423-.898c.443.58.125.02-.064.713.767-.059 1.53-.117 2.293-.178-.312-.742-.627-1.484-.94-2.229-.581 1.495-.346.896-1.289 1.694m12.976-.769l.691.773c-.467-.718-.01-.218-.691-.773M4.768 4.944h1.616c-.363-.534-.543-1.143-.727-2.058-1.825.685-.014.825-1.289 1.692l-.44.683.095-1.068-1.51-.118m29.565.542c.126.01.252.019.377.03-.248-1.321.089-.726-.627-1.486l-.44.685.69.771m-1.883-.148c-.617-.774.031-.265-1.069-.804l.692.774.377.03m-5.63.475h1.243l.176-.092-.724-.416-.784.297.089.211"/><path clip-path="url(#SVGID_2_)" d="M49.989 3.881c.011-.121.022-.239.031-.358-.753-.061-1.508-.117-2.262-.179.237.759.341.389-.416.673.123-.42.268-.79.448-1.029-1.219-.561-.341-.429-1.917.207.396-1.728.756-2.266.228-2.759h-2.975l-.048.025.973 1.872c-1.441.625-2.688.184-3.08.474l-.816.653c1.031-.05.078.13 1.162-.267-.214.819-.458 1.352-.718 1.75h6.523c.055-.27.116-.545.186-.804l-.071.804h1.936c-.064-.255.114-.497.816-1.062m-11.845.856l-.018.207h.642c.037-.043.074-.086.129-.146-.251-.022-.501-.04-.753-.061m-2.268.207h.674l-1.391-.802.717.802M.326.932c-.147.42-.23.778-.326 1.123v1.642c2.721-.39 4.488-1.36 6.505-1.82.185 2.085.328 1.335 1.256 2.97l-.045.098h5.736c-.423-.941-.588-.704-2.203-.898C13.52 2.82 13.574 4 13.795 1.019c1.227 1.442 1.17 1.344 3.235 2.051.219.375.44.751.659 1.128-.009.119-.019.238-.032.356-1.257-.098-2.513-.199-3.768-.297.253.345.471.521.711.688h4.133c-.455-1.12-1.161-1.525-1.578-3.303l3.268 1.696.534-1.754c.831.629 1.048 1.227 1.729 1.93l.126-1.423c.148-.906.02-1.162-.148-1.654h-1.553l-.058.077c-.007-.029-.016-.048-.022-.077H3.215l-.009.102C1.8 1.628 2.095 1.195.798.456L.82.437H0v.923c.108-.144.206-.294.326-.428m27.938.066c1.199.552.37.433 1.842-.175l.069-.005c-.611 2.645-1.136 2.476 1.576 3.688.584-.628.407-.559 1.225-.98l-.973-1.871c1.441-.626 2.688-.184 3.079-.475l.817-.652c-1.031.05-.078-.13-1.162.267.033-.129.069-.242.104-.357h-6.292a2.494 2.494 0 01-.285.56m5.843 2.617c-.461.98-.63.121-.095 1.068.158-.347.315-.693.471-1.04-.125-.009-.25-.02-.376-.028"/><path clip-path="url(#SVGID_2_)" d="M12.303 1.171l1.13.091c-.132-.28-.227-.55-.338-.825h-.904c.022.221.049.466.112.734M28.295.642a3.538 3.538 0 00-.071-.205h-2.189a.211.211 0 00-.002.026c.755.061 1.509.118 2.262.179m21.49 1.7c-.114-.129-.23-.259-.346-.387l-1.507-.118c.345.384.69.772 1.037 1.159-.845.717-.57.651-1.981.919 1.091-.369-1.68.359-2.67.148-.022.658-.053.582.056.881h3.421c.105-.153.205-.336.294-.582l1.628.582h.977l.128-1.442c-.465-.713-.303-.616-1.037-1.16M43.84.437c.071.072.184.176.385.389l.25-.389h-.635zm-4.58.713c-.443-.579-.124-.019.065-.713-.767.06-1.53.117-2.293.178.312.743.627 1.485.939 2.229.581-1.495.346-.895 1.289-1.694M.331 3.067c.704-.217.809-.358 1.09-.743l-.21-.235.549-.206a8.82 8.82 0 01.335-.384c.689 1.659-.19.911 1.629 1.312l.633-1.482.431.164c.214-.354.456-.678.764-1.056h3.366c.675 1.148.281.964 1.504.793-.401.624-.126.335-.47.593l-.603 2.704c-.796-.637-.939-.954-1.35-1.902.782-.214.961-.335 1.222-.505l-.429.102-.009.108-.337-.027-.951.224-.049-.589c-.309.07-.575.129-.809.186-.157.886-.312 1.771-.47 2.655.768.036 1.2.072 1.538.164H4.768M1.488.437h-.23L1.25.486c.095-.024.167-.036.238-.049"/><path clip-path="url(#SVGID_2_)" d="M10.04.994l1.203.691c.162 1.045.619 2.15 1.115 3.26h2.418c-.871-.996-.824-1.45-2.634-1.333L12.133.437H9.564l.061.033c-.055.093-.009.218.415.524m31.199 3.543c-.167.122-.303.26-.416.407h2.102c-.542-.296-.841-.632-1.623-1.12-.021.237-.041.477-.063.713m-15.646-3.39c.467.718.01.218.691.772l-.691-.772m-11.686.896c.105-.248.211-.493.318-.742l-1.102.442c.261.1.522.201.784.3m34.684-.247l-2.459.008c.425.233 1.484.18 2.459-.008"/></g></svg>